<?xml version="1.0" encoding="UTF-8" standalone="no"?> <svg width="64" height="64" viewBox="0 0 64 64" fill="none" xmlns="http://www.w3.org/2000/svg">
<path d="M4.82997 53.1399L15.05 52.8699C15.5607 52.8574 16.0474 52.6498 16.41 52.2899L49.87 18.8799C51.5615 17.1834 52.5113 14.8855 52.5113 12.4899C52.5113 10.0942 51.5615 7.79632 49.87 6.09988V6.09988C48.1735 4.40836 45.8756 3.4585 43.48 3.4585C41.0843 3.4585 38.7864 4.40836 37.09 6.09988L3.67997 39.5099C3.32002 39.8725 3.11249 40.3591 3.09997 40.8699L2.82997 51.0899C2.8233 51.3567 2.8701 51.6222 2.96762 51.8706C3.06513 52.1191 3.2114 52.3455 3.39778 52.5365C3.58417 52.7276 3.80691 52.8794 4.05288 52.983C4.29885 53.0866 4.56307 53.14 4.82997 53.1399V53.1399ZM39.92 8.92988C44.74 4.35988 51.61 11.2399 47.04 16.0499L44 19.1199L36.85 11.9999L39.92 8.92988Z" fill="black"/>
<path d="M60 56.54H4C3.46957 56.54 2.96086 56.7508 2.58579 57.1258C2.21071 57.5009 2 58.0096 2 58.54C2 59.0705 2.21071 59.5792 2.58579 59.9543C2.96086 60.3293 3.46957 60.54 4 60.54H60C60.5304 60.54 61.0391 60.3293 61.4142 59.9543C61.7893 59.5792 62 59.0705 62 58.54C62 58.0096 61.7893 57.5009 61.4142 57.1258C61.0391 56.7508 60.5304 56.54 60 56.54Z" fill="black"/>
</svg>
